<svg width="30" height="31" viewBox="0 0 30 31" fill="none" xmlns="http://www.w3.org/2000/svg">
<path fill-rule="evenodd" clip-rule="evenodd" d="M15 0.679199C6.71573 0.679199 0 7.45015 0 15.8026C0 24.1549 6.71573 30.9259 15 30.9259C23.2843 30.9259 30 24.1549 30 15.8026C30 7.45015 23.2843 0.679199 15 0.679199ZM11.7021 7.78553C12.5554 7.74638 12.8281 7.7368 15.0008 7.7368H14.9983C17.1716 7.7368 17.4433 7.74638 18.2966 7.78553C19.1483 7.82485 19.73 7.96079 20.24 8.16026C20.7666 8.3661 21.2116 8.64169 21.6567 9.09035C22.1017 9.53868 22.375 9.98869 22.58 10.5192C22.7767 11.032 22.9117 11.6182 22.9517 12.4768C22.99 13.3372 23 13.6121 23 15.8027C23 17.9932 22.99 18.2675 22.9517 19.1278C22.9117 19.9862 22.7767 20.5725 22.58 21.0855C22.375 21.6158 22.1017 22.0658 21.6567 22.5141C21.2121 22.9628 20.7665 23.2391 20.2405 23.4451C19.7315 23.6445 19.1495 23.7805 18.2978 23.8198C17.4444 23.859 17.1726 23.8685 14.9998 23.8685C12.8272 23.8685 12.5547 23.859 11.7014 23.8198C10.8499 23.7805 10.2684 23.6445 9.75937 23.4451C9.23353 23.2391 8.78719 22.9628 8.34268 22.5141C7.89785 22.0658 7.62451 21.6158 7.42001 21.0853C7.22234 20.5725 7.0875 19.9863 7.04834 19.1277C7.00967 18.2673 7 17.9932 7 15.8027C7 13.6121 7.01 13.337 7.04817 12.4767C7.0865 11.6183 7.22151 11.032 7.41984 10.519C7.62484 9.98869 7.89818 9.53868 8.34318 9.09035C8.78786 8.64186 9.23419 8.36627 9.76037 8.16026C10.269 7.96079 10.8504 7.82485 11.7021 7.78553Z" fill="#3E64FF"/>
<path fill-rule="evenodd" clip-rule="evenodd" d="M14.2831 9.19049C14.4225 9.19027 14.5724 9.19034 14.7341 9.19041L15.0008 9.19049C17.1368 9.19049 17.39 9.19822 18.2335 9.23687C19.0135 9.27283 19.4368 9.40424 19.7188 9.51464C20.0922 9.66083 20.3583 9.83559 20.6382 10.1179C20.9182 10.4002 21.0915 10.6691 21.2368 11.0455C21.3463 11.3295 21.4768 11.7563 21.5124 12.5427C21.5507 13.393 21.559 13.6484 21.559 15.801C21.559 17.9536 21.5507 18.209 21.5124 19.0593C21.4767 19.8457 21.3463 20.2725 21.2368 20.5565C21.0918 20.9329 20.9182 21.2009 20.6382 21.483C20.3582 21.7654 20.0923 21.9401 19.7188 22.0863C19.4372 22.1972 19.0135 22.3283 18.2335 22.3642C17.3901 22.4029 17.1368 22.4113 15.0008 22.4113C12.8646 22.4113 12.6114 22.4029 11.7681 22.3642C10.9881 22.3279 10.5647 22.1965 10.2826 22.0861C9.90923 21.9399 9.64256 21.7652 9.36256 21.4829C9.08256 21.2006 8.90922 20.9324 8.76389 20.5558C8.65438 20.2718 8.52388 19.845 8.48838 19.0586C8.45005 18.2083 8.44238 17.9529 8.44238 15.799C8.44238 13.645 8.45005 13.391 8.48838 12.5407C8.52405 11.7543 8.65438 11.3274 8.76389 11.0431C8.90889 10.6667 9.08256 10.3979 9.36256 10.1155C9.64256 9.83324 9.90923 9.65848 10.2826 9.51195C10.5646 9.40105 10.9881 9.26998 11.7681 9.23385C12.5061 9.20024 12.7921 9.19016 14.2831 9.18848V9.19049ZM19.2712 10.5297C18.7411 10.5297 18.3111 10.9628 18.3111 11.4973C18.3111 12.0317 18.7411 12.4652 19.2712 12.4652C19.8012 12.4652 20.2312 12.0317 20.2312 11.4973C20.2312 10.9629 19.8012 10.5294 19.2712 10.5294V10.5297ZM10.8924 15.8028C10.8924 13.5154 12.7318 11.6608 15.0006 11.6607C17.2695 11.6607 19.1085 13.5153 19.1085 15.8028C19.1085 18.0903 17.2696 19.9441 15.0008 19.9441C12.7319 19.9441 10.8924 18.0903 10.8924 15.8028Z" fill="#3E64FF"/>
<path d="M15.0008 13.1138C16.4735 13.1138 17.6675 14.3174 17.6675 15.8024C17.6675 17.2872 16.4735 18.491 15.0008 18.491C13.528 18.491 12.3341 17.2872 12.3341 15.8024C12.3341 14.3174 13.528 13.1138 15.0008 13.1138Z" fill="#3E64FF"/>
</svg>
