<svg width="30" height="31" viewBox="0 0 30 31" fill="none" xmlns="http://www.w3.org/2000/svg">
<path fill-rule="evenodd" clip-rule="evenodd" d="M0 15.8026C0 24.1549 6.71573 30.9259 15 30.9259C23.2843 30.9259 30 24.1549 30 15.8026C30 7.45015 23.2843 0.679199 15 0.679199C6.71573 0.679199 0 7.45015 0 15.8026ZM24.4138 15.2238C24.4119 20.1809 20.4122 24.2145 15.4944 24.2165H15.4907C13.9979 24.216 12.5311 23.8383 11.2283 23.1219L6.49999 24.3724L7.76537 19.7125C6.98482 18.3486 6.5741 16.8016 6.57477 15.2167C6.57673 10.2584 10.578 6.22441 15.4943 6.22441C17.8804 6.22545 20.1199 7.16197 21.8039 8.8618C23.4879 10.5615 24.4148 12.8209 24.4138 15.2238Z" fill="#3E64FF"/>
<path fill-rule="evenodd" clip-rule="evenodd" d="M8.64151 22.2358L11.4474 21.4937L11.7181 21.6557C12.8563 22.3367 14.1611 22.6971 15.4914 22.6976H15.4944C19.5805 22.6976 22.9062 19.3445 22.9078 15.2231C22.9086 13.2259 22.1382 11.348 20.7385 9.93514C19.3388 8.5223 17.4774 7.74386 15.4973 7.74316C11.408 7.74316 8.08231 11.0959 8.08069 15.217C8.08011 16.6294 8.47206 18.0048 9.21416 19.1948L9.39043 19.4776L8.64151 22.2358ZM19.6827 17.1597C19.8381 17.2355 19.9431 17.2866 19.9879 17.3621C20.0436 17.4558 20.0436 17.9056 19.858 18.4306C19.6722 18.9555 18.7819 19.4345 18.3536 19.499C17.9697 19.5569 17.4838 19.581 16.9499 19.41C16.6262 19.3064 16.2111 19.1682 15.6794 18.9366C13.5901 18.027 12.1781 15.9854 11.9112 15.5995C11.8925 15.5725 11.8795 15.5536 11.8722 15.5437L11.8704 15.5413C11.7524 15.3827 10.9621 14.3196 10.9621 13.2193C10.9621 12.1843 11.4664 11.6418 11.6985 11.392C11.7144 11.3749 11.7291 11.3592 11.7422 11.3448C11.9464 11.1198 12.1879 11.0636 12.3365 11.0636C12.485 11.0636 12.6338 11.065 12.7636 11.0715C12.7796 11.0724 12.7963 11.0723 12.8135 11.0722C12.9434 11.0714 13.1053 11.0704 13.2651 11.4573C13.3265 11.6061 13.4164 11.8268 13.5113 12.0596C13.703 12.5303 13.9149 13.0504 13.9522 13.1257C14.0079 13.2382 14.0451 13.3693 13.9708 13.5194C13.9596 13.5419 13.9493 13.5631 13.9395 13.5834C13.8837 13.6982 13.8426 13.7827 13.7479 13.8942C13.7107 13.938 13.6722 13.9853 13.6337 14.0325C13.557 14.1267 13.4804 14.2208 13.4136 14.2879C13.302 14.3999 13.1859 14.5215 13.3159 14.7464C13.4459 14.9714 13.8932 15.7072 14.5557 16.303C15.2679 16.9435 15.8869 17.2142 16.2007 17.3514C16.262 17.3782 16.3116 17.3999 16.348 17.4183C16.5708 17.5308 16.7008 17.512 16.8308 17.3621C16.9608 17.2121 17.3879 16.7059 17.5365 16.481C17.685 16.2561 17.8337 16.2936 18.0379 16.3685C18.2422 16.4436 19.338 16.9871 19.5608 17.0996C19.6043 17.1216 19.645 17.1414 19.6827 17.1597Z" fill="#3E64FF"/>
</svg>
